# xmcd CD database file
#
# Track frame offsets:
#	150
#	18964
#	39651
#	58465
#
# Disc length: 1050 seconds
#
# Revision: 1
# Processed by: cddbd v1.5.2PL0 Copyright (c) Steve Scherf et al.
# Submitted via: CDex 1.70beta2
#
DISCID=31041804
DTITLE=カーヤ(CV:折笠富美子) - 魔法使いですけど
DYEAR=2009
DGENRE=Anime
TTITLE0=魔法使いですけど
TTITLE1=ひとりごとですから…
TTITLE2=魔法使いですけど(Off Vocal)
TTITLE3=ひとりごとですから…(Off Vocal)
EXTD=YEAR: 2009
EXTT0=
EXTT1=
EXTT2=
EXTT3=
PLAYORDER=
